<?xml version="1.0" standalone="no"?>
<!DOCTYPE svg PUBLIC "-//W3C//DTD SVG 20010904//EN"
 "http://www.w3.org/TR/2001/REC-SVG-20010904/DTD/svg10.dtd">
<svg version="1.0" xmlns="http://www.w3.org/2000/svg"
 width="898.000000pt" height="236.000000pt" viewBox="0 0 898.000000 236.000000"
 preserveAspectRatio="xMidYMid meet">

<g transform="translate(0.000000,236.000000) scale(0.100000,-0.100000)"
fill="#000000" stroke="none">
<path d="M1310 1774 c-83 -30 -180 -98 -236 -165 -129 -153 -184 -339 -100
-339 39 0 75 57 47 75 -6 3 -8 20 -7 38 8 83 19 101 110 193 74 73 101 94 143
107 87 29 150 18 171 -28 8 -18 6 -39 -10 -91 -11 -38 -24 -73 -29 -79 -5 -5
-9 -17 -9 -27 0 -10 -7 -21 -15 -24 -8 -4 -15 -14 -15 -24 0 -11 -4 -21 -9
-25 -6 -3 -16 -18 -24 -33 -8 -15 -31 -56 -52 -92 -21 -36 -51 -89 -67 -119
-16 -30 -37 -66 -47 -80 -10 -14 -26 -42 -36 -61 -117 -232 -128 -262 -113
-317 12 -47 62 -85 107 -81 31 3 36 7 39 32 2 16 -1 33 -7 39 -17 17 -13 70 7
97 20 29 42 87 42 113 0 9 3 17 8 17 4 0 12 10 17 23 23 48 71 132 81 142 17
16 54 85 54 101 0 8 7 17 15 20 16 7 149 268 148 293 0 9 4 21 8 27 5 6 10 43
10 82 1 76 -8 98 -68 154 -23 22 -41 29 -88 33 -33 2 -67 2 -75 -1z"/>
<path d="M2254 1673 c-72 -111 -139 -225 -174 -300 -123 -258 -118 -252 -290
-393 -48 -40 -92 -70 -102 -70 -3 0 -2 17 4 38 18 67 -10 220 -50 265 -24 27
-64 18 -81 -18 -32 -71 -74 -123 -131 -165 -34 -25 -70 -53 -81 -62 -23 -21
-25 -56 -4 -64 18 -7 103 54 187 134 64 60 72 58 65 -19 -6 -53 -12 -71 -46
-126 -31 -50 -61 -66 -96 -53 -36 14 -82 2 -100 -26 -21 -32 -19 -38 16 -79
23 -26 39 -35 62 -35 47 0 253 106 315 162 43 39 111 82 118 76 2 -3 -7 -29
-21 -59 -28 -61 -31 -96 -12 -123 18 -24 53 -13 71 22 8 15 28 40 45 56 17 17
31 36 31 43 0 7 6 13 13 13 8 0 34 18 58 41 66 62 185 138 200 128 11 -6 11
-21 1 -79 -20 -114 -16 -167 13 -195 38 -39 72 -31 136 34 19 20 52 45 73 56
50 27 65 45 81 99 24 78 -1 70 -136 -46 -30 -26 -60 -48 -67 -48 -13 0 -9 39
13 112 34 120 15 168 -67 168 -66 0 -141 -49 -270 -177 -21 -21 -38 -34 -38
-31 0 13 77 164 103 203 15 22 27 45 27 52 0 7 8 13 19 13 33 0 171 226 171
281 0 10 4 20 9 23 4 3 14 32 21 65 11 53 11 63 -4 86 -22 34 -59 33 -82 -2z"/>
<path d="M5925 1649 c-117 -27 -236 -66 -288 -96 -32 -18 -61 -33 -63 -33 -8
0 -120 -89 -135 -108 -33 -40 -69 -109 -69 -135 0 -34 20 -52 80 -72 46 -15
112 -16 150 -2 8 3 22 5 30 5 8 -1 29 2 47 6 28 7 31 5 26 -13 -3 -12 -9 -21
-13 -21 -4 0 -15 -17 -24 -37 -9 -21 -28 -58 -42 -83 -56 -97 -104 -193 -104
-206 0 -9 -11 -14 -29 -14 -39 0 -57 -23 -43 -54 16 -37 97 -50 204 -36 45 6
87 14 93 18 5 3 24 5 42 3 19 -1 33 2 33 8 0 6 15 11 33 11 39 0 179 47 189
63 4 7 8 9 8 5 0 -13 123 64 185 115 115 96 171 187 181 296 14 144 -43 254
-173 334 -77 48 -219 68 -318 46z m219 -79 c74 -31 106 -59 127 -108 23 -52
33 -190 17 -209 -6 -7 -8 -19 -5 -27 3 -8 0 -20 -8 -26 -7 -6 -16 -22 -19 -36
-20 -79 -199 -208 -367 -264 -57 -19 -219 -52 -227 -45 -2 2 60 131 156 322
l41 82 48 7 c26 4 59 11 73 16 25 10 32 11 108 22 92 14 165 73 142 115 -16
32 -36 26 -108 -28 -29 -22 -112 -50 -201 -68 -32 -6 -34 -5 -27 18 19 63 22
86 14 116 -10 38 -47 66 -80 61 -21 -3 -23 -8 -22 -58 1 -37 -3 -58 -12 -63
-8 -4 -14 -17 -14 -27 0 -11 -8 -35 -17 -54 -16 -32 -25 -37 -88 -51 -129 -31
-190 -28 -207 10 -12 27 -4 46 54 112 76 88 245 176 398 207 51 10 176 -3 224
-24z"/>
<path d="M6683 1480 c-47 -19 -19 -120 32 -120 44 0 63 81 27 113 -21 19 -27
20 -59 7z"/>
<path d="M7673 1218 c-5 -7 -22 -39 -38 -71 -28 -56 -99 -127 -127 -127 -8 0
-49 -34 -92 -75 -44 -41 -83 -72 -87 -69 -18 11 10 110 42 152 22 28 33 75 24
102 -10 30 -60 27 -90 -6 -23 -24 -25 -25 -31 -8 -12 39 -22 49 -52 52 -100
10 -288 -113 -364 -239 -40 -66 -44 -91 -28 -150 12 -43 52 -65 101 -55 45 9
132 71 251 179 23 20 43 36 44 34 2 -1 4 -25 5 -52 3 -67 16 -93 51 -100 42
-10 104 24 186 103 160 151 222 204 227 190 7 -18 0 -97 -10 -123 -18 -44 -61
-104 -82 -114 -15 -7 -32 -7 -48 -1 -36 14 -82 2 -100 -26 -21 -32 -19 -38 16
-79 23 -26 39 -35 62 -35 31 0 190 71 202 90 3 6 14 10 23 10 9 0 43 22 74 48
31 26 89 73 128 106 46 38 69 64 66 73 -4 8 -6 19 -6 24 0 26 -63 -12 -172
-103 -25 -21 -50 -38 -56 -38 -7 0 -7 11 0 38 18 66 -10 220 -50 265 -18 20
-55 23 -69 5z m-434 -178 c21 0 -104 -112 -177 -159 -90 -58 -133 -76 -143
-60 -5 8 -9 16 -8 19 0 20 67 101 116 141 17 14 84 48 123 63 8 3 28 3 44 1
16 -3 36 -5 45 -5z"/>
<path d="M3754 1145 c-103 -86 -130 -106 -137 -98 -4 3 -19 -6 -33 -21 -30
-29 -129 -99 -156 -109 -10 -3 -18 -11 -18 -17 0 -5 -5 -10 -11 -10 -6 0 -28
-13 -48 -29 -20 -16 -40 -29 -46 -29 -5 -1 -31 -6 -57 -12 -77 -19 -113 7 -69
48 31 28 72 62 77 62 9 0 94 65 94 72 0 4 7 8 15 8 20 0 100 60 116 87 9 17
10 29 1 47 -20 44 -135 47 -219 6 -37 -18 -133 -113 -133 -131 0 -5 -4 -9 -10
-9 -5 0 -7 6 -4 14 10 27 -17 27 -44 1 -30 -30 -127 -98 -154 -108 -10 -3 -18
-11 -18 -17 0 -5 -5 -10 -11 -10 -6 0 -26 -12 -44 -26 -39 -30 -137 -58 -172
-50 -30 8 -29 32 3 59 14 12 35 30 45 40 10 9 21 17 24 17 10 0 95 64 95 72 0
4 7 8 15 8 20 0 100 60 116 87 21 38 -1 70 -55 78 -92 14 -176 -16 -243 -89
-40 -43 -83 -113 -83 -136 0 -6 -10 -24 -22 -41 -18 -25 -20 -33 -10 -47 7 -9
18 -28 24 -42 7 -14 25 -37 40 -52 23 -24 35 -27 85 -27 61 1 178 39 199 65 6
8 16 14 21 14 6 0 22 11 37 25 15 14 30 25 33 25 3 0 23 16 44 35 48 43 67 45
37 5 -18 -26 -20 -34 -10 -48 7 -9 18 -28 24 -42 7 -14 25 -37 40 -52 23 -24
35 -27 85 -27 61 1 178 39 199 65 6 8 16 14 21 14 6 0 22 11 37 25 15 14 31
25 35 25 4 0 16 9 27 21 15 17 95 76 155 114 9 6 41 27 72 48 31 20 59 37 62
37 12 0 3 -26 -29 -79 -18 -31 -44 -82 -56 -113 -21 -53 -22 -61 -10 -98 16
-49 56 -80 102 -80 33 0 104 31 123 54 6 7 33 27 60 46 84 58 135 116 135 156
0 38 -20 46 -42 15 -24 -34 -119 -109 -179 -141 -64 -34 -119 -48 -119 -31 0
20 51 105 95 159 25 30 45 64 45 76 0 11 -11 50 -23 86 -22 62 -24 65 -58 68
-31 3 -45 -6 -115 -63z m-909 -72 c-43 -35 -128 -93 -138 -93 -16 0 24 59 54
81 35 24 101 50 109 42 3 -3 -8 -16 -25 -30z m505 -4 c-44 -37 -130 -93 -134
-88 -9 10 16 50 48 74 37 28 107 57 116 48 3 -2 -11 -18 -30 -34z"/>
<path d="M4456 1150 c-102 -39 -217 -135 -271 -224 -37 -63 -41 -88 -25 -147
12 -43 52 -65 101 -55 45 9 134 72 252 179 l42 39 6 -59 c7 -77 15 -91 54 -99
40 -7 72 8 151 74 46 39 62 59 72 95 13 43 11 67 -6 67 -4 0 -43 -34 -86 -75
-77 -72 -96 -82 -96 -47 0 24 31 104 51 130 22 28 33 75 24 102 -9 30 -60 27
-90 -6 l-24 -26 -15 36 c-14 33 -18 36 -53 35 -21 0 -60 -9 -87 -19z m112
-115 c8 -8 -114 -116 -180 -158 -84 -53 -129 -71 -140 -55 -10 17 -10 19 5 44
36 63 131 141 205 169 34 13 97 13 110 0z"/>
<path d="M6506 1135 c-26 -19 -49 -35 -52 -35 -3 0 -28 -18 -56 -39 -27 -22
-54 -41 -59 -43 -16 -5 -17 -73 -1 -73 12 0 42 20 83 58 10 9 23 17 28 17 5 0
22 7 37 15 25 13 29 13 32 0 2 -7 -2 -24 -9 -37 -24 -45 -46 -135 -42 -174 9
-87 51 -104 138 -56 129 71 240 191 207 224 -8 8 -25 0 -66 -30 -82 -62 -154
-103 -162 -91 -8 14 5 79 21 105 8 12 19 49 27 84 l12 62 -27 24 c-38 32 -57
30 -111 -11z"/>
</g>
</svg>
