<?xml version="1.0" standalone="no"?>
<!DOCTYPE svg PUBLIC "-//W3C//DTD SVG 20010904//EN"
 "http://www.w3.org/TR/2001/REC-SVG-20010904/DTD/svg10.dtd">
<svg version="1.0" xmlns="http://www.w3.org/2000/svg"
 width="500.000000pt" height="500.000000pt" viewBox="0 0 500.000000 500.000000"
 preserveAspectRatio="xMidYMid meet">

<g transform="translate(0.000000,500.000000) scale(0.100000,-0.100000)"
fill="#000000" stroke="none">
<path d="M0 2500 l0 -2500 2500 0 2500 0 0 2500 0 2500 -2500 0 -2500 0 0
-2500z m2210 1316 c0 -3 -4 -8 -10 -11 -5 -3 -10 -1 -10 4 0 6 5 11 10 11 6 0
10 -2 10 -4z m190 -60 c0 -11 -19 -15 -25 -6 -3 5 1 10 9 10 9 0 16 -2 16 -4z
m550 -26 c0 -5 -4 -10 -10 -10 -5 0 -10 5 -10 10 0 6 5 10 10 10 6 0 10 -4 10
-10z m-407 -42 c196 7 360 -20 537 -89 56 -21 76 -25 82 -16 5 8 8 7 8 -5 0
-11 17 -26 43 -39 37 -19 138 -86 216 -143 50 -38 191 -198 237 -272 34 -53
50 -71 57 -62 6 9 7 7 3 -5 -3 -10 5 -39 18 -65 29 -58 76 -187 76 -210 0 -27
-15 -1 -40 68 -12 36 -44 108 -71 161 -40 77 -53 95 -71 95 -11 -1 -23 5 -26
13 -3 10 0 12 12 8 9 -4 16 -4 16 0 0 15 -52 73 -66 73 -7 0 -14 8 -14 18 -1
23 -35 63 -52 60 -7 -2 -13 5 -13 14 0 37 -192 182 -335 253 -61 31 -77 35
-92 26 -11 -7 -24 -8 -30 -5 -8 5 -5 10 8 15 17 6 16 8 -11 19 -16 7 -44 13
-61 14 -18 1 -38 6 -45 12 -19 15 -59 24 -59 13 0 -13 -28 -11 -32 2 -2 6 -26
15 -53 20 -72 11 -309 9 -385 -5 -56 -9 -65 -14 -68 -33 -2 -13 -10 -23 -18
-23 -17 0 -18 12 -1 29 10 11 9 13 -5 8 -9 -3 -33 -9 -52 -13 -26 -4 -36 -11
-36 -25 0 -20 -26 -27 -32 -9 -5 17 -66 -8 -64 -27 0 -9 -5 -18 -11 -20 -7 -3
-13 2 -13 10 0 11 -26 1 -92 -35 -104 -56 -169 -102 -249 -177 l-54 -51 97 64
c150 100 318 171 456 192 23 4 42 11 42 16 0 6 7 8 15 4 26 -10 105 5 105 20
0 18 17 18 27 0 11 -19 253 -27 253 -8 0 6 5 12 10 12 6 0 10 -6 10 -14 0 -16
13 -21 73 -32 30 -5 37 -3 37 10 0 9 8 16 21 16 15 0 19 -5 17 -22 -3 -19 10
-25 122 -63 155 -51 185 -64 285 -122 141 -82 274 -203 390 -358 48 -64 140
-240 151 -290 11 -50 -11 -18 -46 67 -24 60 -35 75 -47 71 -13 -5 -15 -2 -9
12 9 23 -53 128 -71 121 -12 -5 -17 5 -14 30 1 6 -36 50 -81 98 -57 59 -87 84
-96 78 -9 -6 0 -23 34 -62 25 -30 64 -80 86 -113 41 -61 138 -252 138 -274 0
-27 -19 -11 -31 25 -22 69 -48 112 -64 106 -16 -7 -21 11 -5 21 18 11 -89 167
-191 279 -60 66 -216 186 -241 186 -10 0 -18 4 -18 9 0 5 -24 23 -52 39 -152
85 -310 117 -533 108 -192 -8 -350 -48 -519 -133 -106 -53 -148 -84 -136 -98
14 -16 1 -26 -20 -15 -13 7 -34 -6 -97 -60 -105 -89 -199 -208 -272 -342 l-20
-36 42 6 c64 10 110 8 114 -3 2 -6 -13 -11 -34 -11 -21 0 -60 -4 -86 -8 -39
-6 -50 -12 -59 -34 -7 -16 -13 -117 -16 -240 -3 -153 -7 -212 -16 -209 -7 2
-13 40 -16 95 l-5 91 -85 -74 c-47 -41 -88 -75 -92 -75 -5 0 -8 -20 -8 -45 0
-57 -18 -100 -60 -149 -80 -90 -173 -89 -148 3 6 23 36 60 90 112 72 70 79 81
67 95 -23 28 -75 44 -141 44 -81 0 -135 15 -149 42 -47 88 107 371 234 431 78
37 136 9 159 -77 19 -70 21 -68 99 84 30 58 59 110 65 115 6 6 37 46 69 90 33
44 85 110 117 147 32 36 58 74 58 83 0 9 4 13 10 10 5 -3 34 14 64 39 169 138
366 233 553 269 44 8 63 16 64 27 0 8 3 10 5 4 3 -8 44 -10 137 -6z m-403 -8
c0 -5 -4 -10 -10 -10 -5 0 -10 5 -10 10 0 6 5 10 10 10 6 0 10 -4 10 -10z
m1055 -40 c3 -5 1 -10 -4 -10 -6 0 -11 5 -11 10 0 6 2 10 4 10 3 0 8 -4 11
-10z m-65 -160 c0 -5 -4 -10 -10 -10 -5 0 -10 5 -10 10 0 6 5 10 10 10 6 0 10
-4 10 -10z m150 -70 c0 -5 -5 -10 -11 -10 -5 0 -7 5 -4 10 3 6 8 10 11 10 2 0
4 -4 4 -10z m-1600 -20 c0 -5 -7 -10 -15 -10 -8 0 -15 5 -15 10 0 6 7 10 15
10 8 0 15 -4 15 -10z m-200 -40 c0 -5 -5 -10 -11 -10 -5 0 -7 5 -4 10 3 6 8
10 11 10 2 0 4 -4 4 -10z m2160 -40 c0 -5 -4 -10 -10 -10 -5 0 -10 5 -10 10 0
6 5 10 10 10 6 0 10 -4 10 -10z m-2140 -108 c0 -13 -12 -22 -22 -16 -10 6 -1
24 13 24 5 0 9 -4 9 -8z m2290 -108 c0 -8 -4 -12 -10 -9 -5 3 -10 10 -10 16 0
5 5 9 10 9 6 0 10 -7 10 -16z m-1052 -196 c44 -48 53 -120 28 -234 -14 -68
-25 -90 -36 -77 -5 4 -2 42 7 83 25 131 2 220 -58 220 -45 0 -81 -23 -143 -92
-72 -81 -128 -190 -134 -262 -5 -67 0 -71 123 -81 95 -7 147 -25 169 -57 13
-18 20 -14 122 73 60 51 117 105 126 121 21 34 38 36 38 6 0 -13 3 -42 6 -64
10 -74 -40 -133 -76 -89 -7 9 -10 27 -7 45 6 28 0 24 -88 -52 -93 -80 -95 -82
-95 -125 0 -101 -108 -218 -185 -199 -58 15 -12 113 94 201 57 47 59 50 43 68
-29 33 -54 40 -157 48 -92 7 -102 10 -124 35 -20 24 -22 34 -17 78 15 114 142
307 235 356 50 27 102 26 129 -2z m691 -54 c-11 -13 -6 -14 42 -7 83 12 122
10 127 -6 3 -10 0 -12 -12 -8 -9 4 -50 1 -91 -5 -91 -14 -86 3 -94 -288 -6
-181 -9 -211 -19 -187 -7 16 -12 60 -12 98 0 64 -9 85 -25 58 -4 -5 -18 -15
-32 -20 -32 -12 -63 12 -63 48 0 27 -16 31 -24 5 -4 -11 -18 -30 -32 -43 -19
-18 -29 -21 -41 -13 -14 9 -21 1 -46 -48 -23 -47 -33 -58 -50 -56 -30 4 -39
48 -33 158 8 129 40 249 61 228 3 -3 -3 -51 -15 -106 -21 -107 -27 -262 -10
-262 12 0 80 136 80 158 0 24 30 72 45 72 18 0 18 1 -1 -45 -8 -20 -14 -47
-12 -58 2 -18 9 -13 41 32 22 30 42 50 47 45 5 -5 10 -27 12 -49 4 -51 32 -58
70 -18 25 26 28 37 35 146 7 104 7 117 -7 117 -26 0 -122 -31 -152 -48 -29
-17 -50 -10 -30 10 7 7 56 26 110 44 73 23 98 36 101 50 2 10 8 25 14 32 8 11
12 10 20 -3 5 -10 4 -21 -4 -31z m78 -130 c8 -20 -13 -42 -27 -28 -12 12 -3
44 11 44 5 0 12 -7 16 -16z m-1697 -120 c0 -52 3 -94 6 -94 3 0 28 12 54 27
34 19 51 36 57 57 4 16 14 31 20 33 10 4 11 -16 6 -79 l-6 -83 21 18 c11 10
30 43 42 73 12 30 26 54 31 54 13 0 11 -14 -11 -65 -53 -124 -112 -144 -114
-38 -1 18 -2 33 -4 33 -2 0 -26 -15 -55 -33 -50 -32 -53 -36 -65 -97 -29 -136
-64 -205 -123 -235 -42 -22 -83 -3 -87 42 -5 51 25 102 113 190 l82 82 7 86
c4 48 6 89 4 91 -2 2 -25 -33 -51 -76 -53 -88 -83 -116 -104 -98 -7 6 -13 21
-13 34 0 20 -5 24 -30 24 -31 0 -33 -3 -67 -85 -9 -22 -18 118 -9 142 9 23 26
14 26 -15 0 -26 2 -27 44 -24 35 3 46 9 55 28 16 37 35 31 26 -8 -4 -18 -10
-44 -13 -57 -10 -46 17 -13 102 122 20 32 41 55 46 52 6 -3 10 -49 10 -101z
m338 13 c3 -17 -33 -60 -57 -68 -19 -7 -2 -39 21 -39 24 0 70 23 87 44 15 18
31 21 31 6 0 -17 -88 -70 -117 -70 -38 0 -53 16 -53 58 0 57 78 119 88 69z
m1612 9 c0 -7 -5 -27 -11 -45 -16 -45 -5 -48 21 -7 12 20 27 36 35 36 13 0 25
-42 25 -86 0 -12 5 -26 11 -29 15 -10 57 32 70 72 11 34 42 59 60 47 7 -4 3
-13 -10 -25 -27 -26 -27 -30 9 -64 l29 -28 56 38 c30 21 58 35 62 32 3 -4 4
-8 2 -10 -2 -2 -28 -20 -57 -41 -48 -35 -52 -41 -47 -67 8 -36 -25 -112 -58
-133 -26 -18 -52 -13 -61 11 -8 19 25 93 53 117 27 24 27 37 -2 64 l-23 22
-29 -30 c-16 -17 -37 -30 -47 -30 -21 0 -48 53 -48 92 0 18 -6 13 -32 -26 -18
-28 -37 -50 -43 -50 -17 -1 -17 65 0 111 16 41 35 58 35 29z m-283 -65 c-4
-117 25 -117 119 -1 50 63 83 84 67 45 -3 -9 0 -22 7 -30 8 -10 11 -31 7 -56
-12 -87 -87 -111 -87 -27 0 18 -3 17 -35 -11 -47 -41 -79 -41 -101 1 -23 44
-11 148 16 148 6 0 9 -31 7 -69z m318 -341 c3 -5 -1 -10 -9 -10 -9 0 -16 5
-16 10 0 6 4 10 9 10 6 0 13 -4 16 -10z m-2461 -25 c3 -9 0 -15 -9 -15 -8 0
-15 7 -15 15 0 8 4 15 9 15 5 0 11 -7 15 -15z m101 -65 c3 -11 13 -20 22 -20
11 0 14 -6 9 -25 -10 -39 83 -241 137 -297 7 -7 21 -26 31 -42 10 -16 37 -49
59 -73 30 -33 43 -41 50 -31 6 10 7 8 3 -4 -6 -21 74 -96 171 -160 68 -45 153
-92 153 -84 0 2 -30 23 -67 47 -100 64 -278 246 -344 351 -33 53 -61 88 -73
90 -11 2 -22 9 -24 17 -3 10 0 12 12 8 20 -8 20 -8 -5 50 -34 78 -39 93 -31
93 4 0 26 -39 47 -87 81 -181 222 -358 378 -473 94 -70 246 -150 340 -179 163
-50 411 -48 597 5 103 30 101 29 223 89 123 60 179 99 171 120 -4 11 -1 14 12
13 54 -8 304 340 304 422 0 11 4 20 8 20 4 0 14 16 21 35 13 38 37 49 26 13
-18 -59 -86 -201 -128 -266 -26 -39 -45 -72 -43 -72 2 0 27 31 56 70 51 69
140 233 173 319 9 25 19 42 22 39 9 -8 -6 -88 -19 -101 -6 -7 -21 -34 -34 -62
-13 -27 -44 -82 -68 -121 -24 -40 -44 -83 -44 -98 0 -19 -5 -26 -20 -26 -23 0
-106 -86 -102 -106 1 -7 -7 -16 -19 -19 -11 -4 -64 -41 -117 -82 -114 -90
-150 -113 -257 -170 -92 -49 -87 -54 17 -17 107 39 188 82 188 100 0 11 6 15
18 11 40 -10 214 129 315 251 77 94 103 135 157 243 47 93 48 95 55 87 10 -9
-54 -138 -111 -227 -33 -50 -98 -128 -158 -187 -137 -137 -266 -222 -426 -281
-36 -13 -74 -28 -85 -32 -48 -22 -368 -74 -480 -78 -66 -3 -126 -10 -133 -16
-11 -8 -16 -7 -23 6 -6 10 -22 17 -39 17 -42 0 -161 27 -246 55 -292 98 -553
324 -691 600 -51 101 -97 225 -83 225 5 0 12 -11 16 -25 7 -27 19 -33 27 -12
3 9 9 7 23 -5 14 -14 15 -21 6 -30 -8 -8 -15 -8 -26 2 -13 10 -13 3 3 -42 44
-129 132 -265 251 -391 203 -215 453 -336 760 -368 95 -10 250 -5 237 7 -2 2
-42 9 -88 15 -111 13 -126 16 -181 33 -27 8 -48 10 -48 5 0 -13 -17 -11 -32 4
-7 8 -45 24 -83 37 -39 12 -100 37 -137 55 -44 21 -70 29 -77 22 -14 -14 -44
0 -37 18 6 17 -87 85 -116 85 -10 0 -18 5 -18 12 0 6 -44 57 -98 112 -109 112
-160 182 -219 301 -49 96 -96 225 -83 225 5 0 12 -9 15 -20z m2415 -14 c0 -12
-10 -14 -38 -7 -2 1 0 6 3 11 9 15 35 12 35 -4z m-275 -25 c-3 -6 -11 -8 -17
-5 -6 4 -5 9 3 15 16 10 23 4 14 -10z m-1980 -1 c3 -5 1 -10 -4 -10 -6 0 -11
5 -11 10 0 6 2 10 4 10 3 0 8 -4 11 -10z m2045 -14 c0 -3 -4 -8 -10 -11 -5 -3
-10 -1 -10 4 0 6 5 11 10 11 6 0 10 -2 10 -4z m-220 -50 c0 -3 -4 -8 -10 -11
-5 -3 -10 -1 -10 4 0 6 5 11 10 11 6 0 10 -2 10 -4z m-1890 -21 c10 -12 10
-15 -4 -15 -9 0 -16 7 -16 15 0 8 2 15 4 15 2 0 9 -7 16 -15z m316 -63 c14 -9
21 -62 11 -80 -5 -6 -21 -12 -38 -12 -28 0 -29 1 -29 50 0 45 2 50 23 50 12 0
27 -4 33 -8z m208 -5 c22 -16 25 -65 5 -78 -50 -31 -101 29 -60 70 25 25 31
25 55 8z m174 -69 c18 -18 32 1 32 43 0 24 4 38 10 34 15 -9 12 -71 -4 -85 -8
-6 -25 -10 -38 -8 -20 3 -23 9 -25 53 -1 48 -1 48 6 12 5 -21 13 -43 19 -49z
m242 72 c0 -5 -7 -10 -15 -10 -11 0 -15 -11 -15 -40 0 -22 -4 -40 -10 -40 -5
0 -10 18 -10 40 0 30 -4 40 -16 40 -8 0 -12 5 -9 10 3 6 22 10 41 10 19 0 34
-4 34 -10z m140 -40 c0 -27 -4 -50 -10 -50 -11 0 -14 83 -3 93 12 12 13 8 13
-43z m191 40 c21 -12 27 -64 8 -75 -6 -4 -8 -13 -5 -21 7 -17 6 -17 -32 2 -43
21 -53 61 -22 86 26 21 26 21 51 8z m177 -72 c18 -18 32 1 32 43 0 24 4 38 10
34 15 -9 12 -71 -4 -85 -8 -6 -25 -10 -38 -8 -20 3 -23 9 -25 53 -1 48 -1 48
6 12 5 -21 13 -43 19 -49z m237 72 c4 -6 -5 -10 -19 -10 -14 0 -26 -4 -26 -10
0 -5 9 -10 20 -10 11 0 20 -4 20 -10 0 -5 -9 -10 -20 -10 -30 0 -24 -28 8 -33
22 -3 20 -4 -10 -6 l-38 -1 0 43 c0 24 3 47 7 50 10 11 51 8 58 -3z m235 -49
c0 -6 -4 -13 -10 -16 -5 -3 -10 1 -10 9 0 9 5 16 10 16 6 0 10 -4 10 -9z m102
-43 c-15 -15 -26 -4 -18 18 5 13 9 15 18 6 9 -9 9 -15 0 -24z m-1862 -8 c0 -5
-5 -10 -11 -10 -5 0 -7 5 -4 10 3 6 8 10 11 10 2 0 4 -4 4 -10z m1804 -75 c-4
-8 -10 -15 -15 -15 -5 0 -9 7 -9 15 0 8 7 15 15 15 9 0 12 -6 9 -15z m-1849
-136 c-10 -15 -25 -10 -19 6 4 8 10 12 15 9 5 -3 7 -10 4 -15z m475 -79 c0 -5
-5 -10 -11 -10 -5 0 -7 5 -4 10 3 6 8 10 11 10 2 0 4 -4 4 -10z m950 6 c0 -11
-19 -15 -25 -6 -3 5 1 10 9 10 9 0 16 -2 16 -4z m30 -56 c0 -5 -5 -10 -11 -10
-5 0 -7 5 -4 10 3 6 8 10 11 10 2 0 4 -4 4 -10z m-1085 -10 c3 -5 2 -10 -4
-10 -5 0 -13 5 -16 10 -3 6 -2 10 4 10 5 0 13 -4 16 -10z m825 -30 c0 -5 -4
-10 -10 -10 -5 0 -10 5 -10 10 0 6 5 10 10 10 6 0 10 -4 10 -10z m-732 -19
c11 -7 11 -9 -1 -14 -16 -6 -27 0 -27 15 0 10 11 10 28 -1z m926 -43 c-7 -10
-34 -10 -34 0 0 4 5 13 12 20 9 9 14 9 19 0 4 -7 5 -16 3 -20z m-814 -23 c0
-8 -7 -15 -15 -15 -26 0 -18 20 13 29 1 1 2 -6 2 -14z m690 0 c0 -8 -7 -15
-15 -15 -26 0 -18 20 13 29 1 1 2 -6 2 -14z m-100 -35 c0 -5 -7 -10 -15 -10
-8 0 -15 5 -15 10 0 6 7 10 15 10 8 0 15 -4 15 -10z"/>
<path d="M2291 3534 c-110 -20 -122 -25 -107 -47 13 -16 18 -16 105 7 86 23
214 42 326 49 28 2 -17 4 -100 4 -86 1 -182 -5 -224 -13z"/>
<path d="M2115 3488 c-16 -6 -69 -28 -117 -50 -67 -32 -85 -44 -80 -57 5 -13
3 -14 -9 -4 -11 9 -24 5 -64 -20 -84 -54 -144 -101 -145 -115 0 -7 -10 -17
-22 -21 -28 -11 -108 -93 -128 -132 -8 -15 -29 -52 -46 -81 -17 -29 -41 -80
-54 -113 -13 -33 -27 -64 -31 -69 -17 -19 -20 3 -4 39 24 60 8 54 -19 -6 -13
-30 -23 -55 -22 -56 1 -1 20 3 43 9 35 8 44 16 53 44 12 34 25 44 32 23 2 -6
13 6 23 27 11 21 32 56 48 78 15 21 27 47 27 58 0 10 10 22 23 27 12 5 44 34
70 65 58 67 183 168 272 221 41 24 64 43 61 51 -7 17 14 30 23 15 5 -8 22 -5
57 11 42 19 49 26 45 44 -5 18 -10 20 -36 12z m-305 -218 c0 -5 -7 -10 -15
-10 -8 0 -15 5 -15 10 0 6 7 10 15 10 8 0 15 -4 15 -10z m-100 -80 c0 -5 -4
-10 -10 -10 -5 0 -10 5 -10 10 0 6 5 10 10 10 6 0 10 -4 10 -10z"/>
<path d="M3220 3367 c0 -2 17 -16 38 -30 21 -13 68 -50 105 -82 50 -42 67 -52
67 -38 0 10 -25 35 -58 59 -64 46 -152 98 -152 91z"/>
<path d="M1135 2864 c-94 -62 -205 -244 -205 -336 0 -59 7 -63 125 -73 91 -7
155 -30 173 -60 6 -13 27 1 109 70 l100 86 7 121 c4 66 5 122 4 123 -2 2 -33
-6 -69 -17 l-66 -20 -19 -85 c-10 -46 -23 -83 -29 -81 -11 3 -11 20 0 91 7 41
6 47 -10 47 -17 0 -17 1 1 21 21 23 20 68 -2 111 -19 37 -66 38 -119 2z"/>
<path d="M1132 2255 c-52 -54 -72 -82 -72 -101 0 -23 3 -25 28 -19 38 9 92 55
114 97 22 42 28 89 12 95 -6 2 -43 -30 -82 -72z"/>
<path d="M2941 2516 c-13 -54 -13 -56 -1 -56 15 0 35 79 23 91 -7 7 -14 -4
-22 -35z"/>
<path d="M2629 2282 c-74 -70 -110 -125 -92 -143 16 -16 73 11 110 54 34 39
56 94 51 129 -3 21 -9 17 -69 -40z"/>
<path d="M1693 2367 c-89 -92 -118 -163 -75 -185 49 -26 101 40 132 168 6 25
13 53 16 63 9 31 -12 18 -73 -46z"/>
<path d="M2105 2589 c-11 -17 1 -21 15 -4 8 9 8 15 2 15 -6 0 -14 -5 -17 -11z"/>
<path d="M3952 2406 c-34 -45 -43 -100 -13 -81 19 11 42 65 39 88 -3 21 -4 20
-26 -7z"/>
<path d="M3632 2525 c-17 -58 -16 -74 4 -54 10 11 14 29 12 55 l-3 39 -13 -40z"/>
<path d="M2923 1297 c-65 -19 -94 -37 -61 -37 15 0 148 50 148 56 0 6 -6 4
-87 -19z"/>
<path d="M2784 1264 c-6 -3 -53 -8 -105 -13 l-94 -8 113 -2 c93 -1 112 1 112
14 0 15 -6 17 -26 9z"/>
<path d="M1810 1910 c0 -5 9 -10 21 -10 11 0 17 5 14 10 -3 6 -13 10 -21 10
-8 0 -14 -4 -14 -10z"/>
<path d="M1810 1864 c0 -9 7 -14 17 -12 25 5 28 28 4 28 -12 0 -21 -6 -21 -16z"/>
<path d="M2005 1899 c-5 -14 -1 -27 9 -37 15 -15 17 -15 32 0 20 20 10 58 -16
58 -10 0 -22 -10 -25 -21z"/>
<path d="M2753 1904 c-7 -20 9 -49 28 -49 22 0 18 59 -4 63 -9 2 -20 -4 -24
-14z"/>
</g>
</svg>
